<?xml version="1.0" encoding="UTF-8" standalone="no"?><svg xmlns:dc="http://purl.org/dc/elements/1.1/" xmlns:cc="http://creativecommons.org/ns#" xmlns:rdf="http://www.w3.org/1999/02/22-rdf-syntax-ns#" xmlns:svg="http://www.w3.org/2000/svg" xmlns="http://www.w3.org/2000/svg" xmlns:sodipodi="http://sodipodi.sourceforge.net/DTD/sodipodi-0.dtd" xmlns:inkscape="http://www.inkscape.org/namespaces/inkscape" width="149.3726mm" height="149.33525mm" viewBox="0 0 529.27301 529.14065" id="svg2" version="1.1" inkscape:version="0.91 r13725" sodipodi:docname="notfount.svg">
  <defs id="defs4"></defs>
  <sodipodi:namedview id="base" pagecolor="#ffffff" bordercolor="#666666" borderopacity="1.0" inkscape:pageopacity="0.0" inkscape:pageshadow="2" inkscape:zoom="0.70710678" inkscape:cx="149.71624" inkscape:cy="345.01314" inkscape:document-units="px" inkscape:current-layer="layer1" showgrid="false" fit-margin-top="0" fit-margin-left="0" fit-margin-right="0" fit-margin-bottom="0" inkscape:window-width="1280" inkscape:window-height="1002" inkscape:window-x="1272" inkscape:window-y="-8" inkscape:window-maximized="1"></sodipodi:namedview>
  <metadata id="metadata7">
    <rdf:rdf>
      <cc:work rdf:about="">
        <dc:format>image/svg+xml</dc:format>
        <dc:type rdf:resource="http://purl.org/dc/dcmitype/StillImage"></dc:type>
        <dc:title></dc:title>
      </cc:work>
    </rdf:rdf>
  </metadata>
  <g inkscape:label="ƒŒƒCƒ„[ 1" inkscape:groupmode="layer" id="layer1" transform="translate(264.06444,-102.05221)">
    <path style="fill:#FB3C02" d="m -13.838601,630.95121 c -53.56129,-2.85184 -104.948189,-21.9951 -147.631849,-54.99759 -15.42184,-11.92399 -31.58823,-27.76788 -43.89643,-43.02077 -33.31557,-41.28621 -53.30974,-90.93132 -57.75634,-143.4078 -0.94275,-11.12585 -1.20937,-25.96747 -0.65364,-36.38572 2.91531,-54.6532 21.75103,-105.49841 55.02397,-148.53184 6.90981,-8.93678 13.28954,-16.12201 22.35451,-25.17696 13.49147,-13.47657 25.409,-23.24872 40.90263,-33.53939 39.4218,-26.18346 84.672109,-41.0763 132.428569,-43.58506 6.4437197,-0.3385 20.8134297,-0.3385 27.25715,0 54.39024,2.85725 105.398071,21.76788 148.403261,55.01898 14.70523,11.36989 30.33072,26.52995 42.28534,41.02576 22.80439,27.65192 40.01521,60.19445 49.90431,94.35994 9.00759,31.11996 12.23334,64.12169 9.46312,96.81429 -4.4469,52.48003 -24.4385,102.11878 -57.75632,143.4078 -10.45942,12.96178 -24.72532,27.37319 -37.63978,38.02366 -27.65191,22.80439 -60.19444,40.01521 -94.359931,49.90431 -19.43337,5.62492 -39.75339,9.03243 -60.3,10.11178 -5.7725803,0.30325 -22.1663603,0.29073 -28.02858,-0.0213 z m 28.92857,-7.44524 c 92.582641,-5.11094 175.537851,-60.1325 216.496471,-143.5952 21.81358,-44.45023 30.28032,-94.25644 24.43533,-143.74286 -5.85957,-49.61011 -26.06071,-96.34711 -58.23995,-134.74286 -9.4507,-11.27643 -21.54994,-23.32916 -32.81048,-32.68434 -40.10945,-33.32266 -89.094991,-53.58509 -141.009941,-58.32753 -14.5860203,-1.33243 -32.2139903,-1.33243 -46.8,0 -45.46575,4.1533 -89.086009,20.33716 -125.967269,46.73601 -61.21942,43.81958 -100.03778,111.42009 -106.8589,186.09014 -1.33243,14.58602 -1.33243,32.21399 0,46.80001 4.1533,45.46573 20.33716,89.08601 46.73601,125.96726 45.72672,63.88383 117.306099,103.28148 195.347299,107.52018 9.3589397,0.50832 19.2159797,0.50117 28.67143,-0.0208 z m -28.41429,-7.72022 c -15.71774,-0.87069 -32.37158,-3.42268 -47.7,-7.30942 -69.602989,-17.64884 -128.700749,-65.10703 -161.217049,-129.46464 -15.75945,-31.19176 -24.47723,-64.1944 -26.38922,-99.90093 -0.59486,-11.10913 -0.0871,-28.23483 1.18558,-39.98571 7.36728,-68.02428 43.09422,-130.5935 98.22069,-172.01563 36.21067,-27.20875 78.918079,-44.0049 123.557139,-48.59305 10.22539,-1.051 13.03369,-1.17703 26.22856971,-1.17703 13.19488029,0 16.00319029,0.12603 26.22858029,1.17703 44.6247,4.58668 87.358111,21.39305 123.557141,48.59305 31.26834,23.49508 56.40591,53.74901 73.80756,88.82991 17.25429,34.78379 25.83499,71.55117 25.83499,110.7 0,39.14885 -8.5807,75.91621 -25.83499,110.70001 -17.4043,35.08621 -42.53449,65.33125 -73.80756,88.82989 -39.7952,29.9022 -86.661821,46.92449 -136.671431,49.64007 -5.4543103,0.29618 -21.4806903,0.28219 -27,-0.0237 z m 26.74286,-75.57632 c 34.22546,-2.74798 65.13135,-14.45146 92.260391,-34.93723 l 3.93184,-2.969 L -12.735351,379.95499 C -104.4247,288.26406 -135.1459,257.68942 -135.33861,257.93663 c -7.86416,10.08808 -14.03957,19.68592 -19.12898,29.73032 -10.80305,21.32076 -16.56678,41.94659 -18.58322,66.50096 -0.6853,8.345 -0.37175,22.54677 0.71533,32.4 5.17377,46.89475 30.45793,90.89028 68.61598,119.39477 27.790069,20.7595 60.239369,32.50862 95.2808887,34.49895 4.65745,0.26455 17.22781,0.1195 21.8571503,-0.2522 z M 139.43572,471.41862 C 169.07619,432.21784 180.69761,382.516 171.54147,334.11076 158.67995,266.11669 106.14922,211.87791 38.532779,196.77732 c -12.6586,-2.827 -24.23535,-4.06694 -37.97138029,-4.06694 -10.93314971,0 -18.01118971,0.54903 -28.01953971,2.17343 -28.06064,4.55435 -54.01446,15.70522 -77.098009,33.12462 l -3.93182,2.96705 122.346119,122.34821 C 105.5475,445.0146 136.26869,475.58925 136.4614,475.34203 c 0.14143,-0.18141 1.47985,-1.94696 2.97432,-3.92341 z" id="path3358" inkscape:connector-curvature="0"></path>
  </g>
</svg>