<?xml version="1.0" encoding="UTF-8" standalone="no"?>
<!-- Created with Inkscape (http://www.inkscape.org/) -->

<svg
   xmlns:dc="http://purl.org/dc/elements/1.1/"
   xmlns:cc="http://creativecommons.org/ns#"
   xmlns:rdf="http://www.w3.org/1999/02/22-rdf-syntax-ns#"
   xmlns:svg="http://www.w3.org/2000/svg"
   xmlns="http://www.w3.org/2000/svg"
   xmlns:sodipodi="http://sodipodi.sourceforge.net/DTD/sodipodi-0.dtd"
   xmlns:inkscape="http://www.inkscape.org/namespaces/inkscape"
   width="471.91144"
   height="687.10626"
   id="svg2"
   version="1.1"
   inkscape:version="0.91 r13725"
   sodipodi:docname="Watering Girl.svg">
  <defs
     id="defs4">
    <inkscape:perspective
       sodipodi:type="inkscape:persp3d"
       inkscape:vp_x="0 : 526.18109 : 1"
       inkscape:vp_y="0 : 1000 : 0"
       inkscape:vp_z="744.09448 : 526.18109 : 1"
       inkscape:persp3d-origin="372.04724 : 350.78739 : 1"
       id="perspective10" />
    <inkscape:perspective
       id="perspective2824"
       inkscape:persp3d-origin="0.5 : 0.33333333 : 1"
       inkscape:vp_z="1 : 0.5 : 1"
       inkscape:vp_y="0 : 1000 : 0"
       inkscape:vp_x="0 : 0.5 : 1"
       sodipodi:type="inkscape:persp3d" />
    <inkscape:perspective
       id="perspective2912"
       inkscape:persp3d-origin="0.5 : 0.33333333 : 1"
       inkscape:vp_z="1 : 0.5 : 1"
       inkscape:vp_y="0 : 1000 : 0"
       inkscape:vp_x="0 : 0.5 : 1"
       sodipodi:type="inkscape:persp3d" />
  </defs>
  <sodipodi:namedview
     id="base"
     pagecolor="#ffffff"
     bordercolor="#666666"
     borderopacity="1.0"
     inkscape:pageopacity="0.0"
     inkscape:pageshadow="2"
     inkscape:zoom="0.73205562"
     inkscape:cx="14.629537"
     inkscape:cy="318.54582"
     inkscape:document-units="px"
     inkscape:current-layer="layer1"
     showgrid="false"
     showguides="true"
     inkscape:guide-bbox="true"
     units="in"
     inkscape:window-width="1280"
     inkscape:window-height="747"
     inkscape:window-x="-8"
     inkscape:window-y="-8"
     inkscape:window-maximized="1" />
  <metadata
     id="metadata7">
    <rdf:RDF>
      <cc:Work
         rdf:about="">
        <dc:format>image/svg+xml</dc:format>
        <dc:type
           rdf:resource="http://purl.org/dc/dcmitype/StillImage" />
        <dc:title />
      </cc:Work>
    </rdf:RDF>
  </metadata>
  <g
     inkscape:label="Layer 1"
     inkscape:groupmode="layer"
     id="layer1"
     transform="translate(-38.684848,1.3448239)">
    <path
       style="fill:#000000;stroke:#000000;stroke-width:0.63977826px;stroke-linecap:butt;stroke-linejoin:miter;stroke-opacity:1"
       d="M 194.4375 0.3125 C 194.09928 0.3544247 193.71627 0.80534559 193 1.6875 C 190.91755 4.2521951 189.9934 4.5214002 186.5 3.40625 C 184.80731 2.8659509 183.10292 2.5510539 182.71875 2.71875 C 182.33454 2.886434 182.31728 4.2189798 182.6875 5.65625 C 183.05777 7.0935202 183.51242 9.0729869 183.6875 10.0625 C 183.96763 11.64597 183.92001 11.701123 183.1875 10.65625 C 180.99522 7.5289722 179.09417 5.9037281 177.875 6.03125 C 175.6735 6.2615216 173.83754 8.6089223 173.375 11.84375 C 173.16561 13.307921 172.15148 15.853752 170.96875 17.84375 C 165.33695 20.549379 163.04718 24.998833 153.71875 28.9375 C 142.70625 33.587223 141.49895 36.239014 137.78125 42 C 127.05382 47.365053 121.81347 51.757065 115.90625 59.5625 C 110.68291 66.464291 108.45766 72.406558 108 80.46875 C 107.8038 83.925715 107.32799 87.980296 106.96875 89.5 C 105.92345 93.922122 105.83512 100.20662 106.71875 105.0625 C 108.24892 113.47089 114.78652 125.8614 119.90625 130.0625 C 120.78253 130.78152 122.11634 132.25795 122.875 133.3125 C 124.07415 134.97928 124.08108 135.28208 122.9375 135.78125 C 120.7134 136.75203 121.28252 137.93147 124.03125 138.09375 C 125.46794 138.17865 126.75063 138.29581 126.90625 138.34375 C 128.06653 138.70188 127.78893 145.31981 126.40625 150.21875 C 125.32496 154.05006 125.01488 156.73656 125.5 157.84375 C 126.56527 160.26662 130.21888 162.623 133.5625 163.03125 C 135.13471 163.22316 136.62413 163.69875 136.84375 164.09375 C 137.69469 165.62433 138.44358 168.27074 138.6875 170.53125 C 138.98292 173.26868 141.6421 175.87756 144.34375 176.09375 C 145.6186 176.19572 145.90884 176.51403 145.8125 177.71875 C 145.61426 180.19541 146.36343 181.16246 149.4375 182.25 C 151.86626 183.10927 152.73205 183.90851 154.59375 187.09375 C 157.36963 191.8433 160.12591 193.1507 165.9375 192.53125 C 168.10993 192.29969 169.93702 191.82804 171.9375 190.84375 C 173.85374 192.25713 176.67142 195.22834 177.09375 200.71875 C 177.74061 209.12799 187.63748 210.36108 186.34375 219.09375 C 185.05002 227.82643 170.99382 220.67977 174.875 225.53125 C 178.75619 230.38273 144.32189 213.2892 144.96875 221.375 C 145.61562 229.46081 143.34364 227.536 136.875 231.09375 C 130.40634 234.65151 134.59674 231.38119 126.1875 227.5 C 117.77827 223.61881 121.66398 222.68276 116.8125 219.125 C 111.96101 215.56725 111.6545 218.45937 99.6875 217.8125 C 87.72051 217.16564 86.24029 216.24914 81.84375 219.96875 C 81.49551 220.26338 81.2158 220.60502 81.03125 221 C 80.62894 221.0474 80.24406 221.09662 79.84375 221.15625 C 67.04229 223.06298 57.393165 230.48818 52.25 240.90625 C 47.106835 251.32431 46.427934 264.74964 51.375 278.6875 C 52.474408 281.78499 53.841209 284.78648 55.375 287.65625 C 53.499413 292.86787 52.989025 297.95417 54.09375 302.53125 C 54.02861 303.11202 54.132192 303.66982 54.46875 304.25 C 54.569259 304.42328 54.649344 304.57798 54.75 304.75 C 55.088711 305.65392 55.488757 306.55452 55.96875 307.40625 C 56.584236 308.49841 57.317625 309.49961 58.125 310.4375 C 58.1344 310.4484 58.14685 310.45775 58.15625 310.46875 C 63.018428 318.73767 64.921968 323.85108 49.75 320.03125 C 35.539091 319.03607 41.480924 320.04678 20.78125 316.8125 C 19.367205 316.59155 18.119689 316.38337 17 316.21875 C 16.736802 314.80359 16.399698 313.51008 15.96875 312.40625 C 15.483158 311.16245 14.912516 310.15525 14.25 309.4375 C 13.587484 308.71973 12.846877 308.28125 12.03125 308.28125 C 11.916224 308.28125 11.800229 308.2965 11.6875 308.3125 C 11.254339 307.48176 10.768656 306.74939 10.25 306.1875 C 9.403062 305.26994 8.448916 304.75 7.40625 304.75 C 6.363584 304.75 5.378189 305.26994 4.53125 306.1875 C 3.684312 307.10505 2.933264 308.44122 2.3125 310.03125 C 1.070972 313.21131 0.3125 317.53576 0.3125 322.34375 C 0.3125 327.15174 1.070972 331.50745 2.3125 334.6875 C 2.933264 336.27753 3.684312 337.58244 4.53125 338.5 C 5.378189 339.41756 6.363584 339.96875 7.40625 339.96875 C 8.448916 339.96875 9.403062 339.41756 10.25 338.5 C 10.881961 337.81535 11.463369 336.91901 11.96875 335.84375 C 11.98225 335.84398 12.01768 335.84375 12.03125 335.84375 C 12.846877 335.84375 13.587484 335.4365 14.25 334.71875 C 14.912516 334.00098 15.483158 332.96255 15.96875 331.71875 C 16.184457 331.16624 16.386478 330.57406 16.5625 329.9375 C 32.508769 329.77154 68.44156 354.73948 82.3125 359.1875 C 84.92772 360.11254 86.584422 360.36242 87.59375 360.1875 C 88.284724 361.09038 88.926164 361.95355 89.375 362.75 C 93.58553 370.22149 102.49374 374.09956 113.40625 374.34375 C 124.31875 374.58792 137.2712 371.23353 149.71875 364.21875 C 162.1663 357.20396 171.74448 347.8363 177.1875 338.375 C 182.63051 328.91371 183.96053 319.31523 179.75 311.84375 C 178.96052 310.44284 178.00757 309.17832 176.90625 308.03125 C 177.01386 304.15021 172.96558 303.46882 168.90625 294.15625 C 165.34513 280.05397 158.52457 272.49431 159.84375 273.78125 C 165.44328 280.08831 161.14552 275.4048 174.40625 282.84375 C 187.61212 290.25193 182.52654 296.03646 198.96875 301.625 C 202.39655 301.48097 209.97298 304.56978 214.6875 312.6875 C 218.33712 318.97161 219.77753 329.09113 219.375 337.8125 C 218.4047 358.83561 214.17337 358.8487 209.96875 375.34375 C 205.76413 391.8388 204.80002 392.81281 206.09375 412.21875 C 207.38747 431.62469 207.07498 431.9439 205.78125 441 C 205.78125 441 208.9968 461.05332 204.46875 473.34375 C 199.9407 485.63418 203.50619 497.92048 199.625 508.59375 C 195.74381 519.26701 198.3158 522.83138 209.3125 530.59375 C 220.3092 538.35613 216.60586 535.48208 228.40625 535.78125 C 230.00687 535.82185 228.72814 538.68605 229.375 546.125 C 229.375 546.125 230.0298 574.88294 237.46875 582.96875 C 244.90769 591.05459 251.3783 586.88745 262.375 585.59375 C 273.3717 584.29996 276.29218 578.45163 275.96875 582.65625 C 275.64531 586.86087 280.27063 588.87707 278.21875 621.15625 C 277.98542 624.82736 278.55301 634.78492 271.4375 639.3125 C 263.55032 641.69084 254.54065 648.18748 244.25 648.65625 C 241.80656 648.76808 240.36801 648.83735 238.5625 648.84375 C 236.58552 648.84975 229.8125 648.6875 229.8125 648.6875 C 229.8125 648.6875 228.54136 650.34594 227.71875 652.4375 C 227.17148 653.82895 226.92798 655.28052 227.6875 657.0625 C 228.33703 666.72257 254.3125 665.875 254.3125 665.875 C 254.3125 665.875 254.96308 666.5047 251.71875 667.21875 C 248.20514 667.99205 240.7829 668.96634 241.03125 671.625 C 241.36413 675.18959 241.78485 674.76938 245.28125 675.71875 C 248.24255 676.52282 245.85182 679.52528 248.78125 681.3125 C 251.71069 683.09902 254.13212 681.53498 252.625 682.59375 C 249.50155 684.78774 254.01697 685.28044 263.28125 686.34375 C 272.54553 687.40706 275.31394 687.13178 288.59375 678.65625 C 297.53292 675.40336 309.21852 679.47134 318.59375 675.0625 C 329.01548 669.87959 322.53599 663.46678 320.53125 651.96875 C 320.14749 649.76721 323.37975 646.99068 324.25 645.28125 C 325.37451 643.07235 324.00689 640.82992 323.15625 636.21875 C 321.55154 627.51866 319.6471 617.85013 320.5 612 C 323.73619 589.80008 328.90083 587.34714 326.84375 566.15625 C 328.13748 554.18925 342.26918 568.12964 369.4375 565.21875 C 396.60582 562.30786 383.64563 560.03269 403.375 552.59375 C 423.10438 545.15481 416.65016 545.78578 427 536.40625 C 427 536.40625 432.82044 532.21555 440.90625 527.6875 C 448.99206 523.15945 444.46091 522.1905 442.84375 513.78125 C 441.22659 505.37201 436.70163 507.62181 440.90625 503.09375 C 445.11087 498.5657 448.01743 500.82487 463.21875 493.0625 C 478.42008 485.30012 468.39687 485.63892 467.75 476.90625 C 467.10314 468.17357 462.89686 451.36066 462.25 434.21875 C 461.65377 418.41876 449.2935 404.82966 446.59375 401.53125 L 448.34375 402.375 C 448.34375 402.375 438.33591 390.878 436.71875 382.46875 C 435.10159 374.05951 421.8093 344.61706 417.28125 336.53125 C 412.75319 328.44544 405.64687 310.99217 405 309.375 C 405 309.375 404.99835 309.04362 399.5 301.28125 C 394.00165 293.51887 388.18585 280.90151 382.6875 277.34375 C 377.18915 273.786 372.66398 264.72648 367.8125 259.875 C 362.96101 255.02351 358.4312 252.1281 355.84375 250.1875 C 353.25629 248.24691 349.36242 244.34684 344.1875 242.40625 C 327.50085 238.84197 333.75832 241.75688 326.09375 239.8125 C 326.09375 239.8125 325.44988 239.50299 317.6875 231.09375 C 309.92512 222.68451 323.8125 232.375 323.8125 232.375 C 329.51765 234.8427 333.4145 239.05146 340 238.21875 C 355.32835 236.28055 351.83042 226.28917 354.8125 219.53125 C 354.8125 219.53125 345.62896 240.35159 332.5625 226.25 C 330.94534 224.63283 329.3125 218.15625 329.3125 218.15625 C 329.3125 218.15625 333.52196 220.41564 339.34375 221.0625 C 351.38386 221.0441 348.90593 208.45662 341.625 202.625 C 340.84512 201.87226 340.4836 201.54256 340.40625 201.5 C 340.55262 201.90886 347.41427 210.27497 340.53125 214.375 C 336.10706 217.01038 334.80777 211.9967 331.25 201 C 327.69225 190.0033 329.33272 190.01228 323.1875 175.78125 C 317.04229 161.55033 319.61087 162.52331 315.40625 154.4375 C 311.20163 146.35169 309.92646 148.28744 303.78125 144.40625 C 303.78125 144.40625 301.51712 141.19524 297.3125 136.34375 C 293.10788 131.49226 291.17647 131.81714 285.03125 128.90625 C 278.88604 125.99536 281.77187 125.00145 281.125 117.5625 C 280.47814 110.12356 281.12964 103.66553 278.21875 97.84375 C 275.30786 92.021966 272.71555 82.320128 268.1875 71 C 263.65944 59.679869 256.8748 50.606023 243.9375 36.375 C 234.12572 25.582043 232.10033 24.853004 224.65625 21.03125 C 218.84779 15.834901 213.19597 12.645028 208.125 12.40625 C 206.45659 11.818377 205.19526 11.611021 204.0625 11.6875 C 201.9832 11.82788 200.31704 12.828322 197.46875 13.75 C 197.52785 13.507556 197.59131 13.285255 197.65625 13.03125 C 198.73718 8.8034289 197.97638 4.3802362 195.65625 1.375 C 195.09722 0.65092774 194.77572 0.2705728 194.4375 0.3125 z M 82.59375 229.15625 C 83.53231 231.05952 84.65933 232.87197 85.59375 234.3125 C 89.41081 240.197 96.67579 244.00059 104.25 247.40625 C 98.24805 249.09719 92.0567 251.64927 86 255.0625 C 73.83056 261.92056 64.408191 270.97556 58.90625 280.21875 C 58.73548 279.77285 58.564435 279.32067 58.40625 278.875 C 54.09584 266.73085 54.707711 255.12745 59.15625 246.125 C 63.555811 237.22168 71.68707 230.89271 82.59375 229.15625 z "
       id="path2900"
       transform="translate(38.684848,-1.3448239)" />
    <path
       id="path4137"
       d="m -362.46081,100.05289 c -0.33822,0.0419 -0.72123,0.49285 -1.4375,1.375 -2.08245,2.5647 -3.0066,2.8339 -6.5,1.71875 -1.69269,-0.5403 -3.39708,-0.85519 -3.78125,-0.6875 -0.38421,0.16769 -0.40147,1.50023 -0.0312,2.9375 0.37027,1.43727 0.82492,3.41674 1,4.40625 0.28013,1.58347 0.23251,1.63862 -0.5,0.59375 -2.19228,-3.12728 -4.09333,-4.75252 -5.3125,-4.625 -2.2015,0.23027 -4.03746,2.57767 -4.5,5.8125 -0.20939,1.46417 -1.22352,4.01 -2.40625,6 -5.6318,2.70563 -7.92157,7.15509 -17.25,11.09375 -11.0125,4.64973 -12.2198,7.30152 -15.9375,13.0625 -10.72743,5.36506 -15.96778,9.75707 -21.875,17.5625 -5.22334,6.9018 -7.44859,12.84406 -7.90625,20.90625 -0.1962,3.45697 -0.67201,7.51155 -1.03125,9.03125 -1.0453,4.42213 -1.13363,10.70662 -0.25,15.5625 1.53017,8.40839 8.06777,20.7989 13.1875,25 0.87628,0.71902 2.21009,2.19545 2.96875,3.25 1.19915,1.66678 1.20608,1.96958 0.0625,2.46875 -2.2241,0.97078 -1.65498,2.15022 1.09375,2.3125 1.43669,0.0849 2.71938,0.20206 2.875,0.25 1.16028,0.35813 0.88268,6.97606 -0.5,11.875 -1.08129,3.83131 -1.39137,6.51781 -0.90625,7.625 1.06527,2.42287 4.71888,4.77925 8.0625,5.1875 1.57221,0.19191 3.06163,0.6675 3.28125,1.0625 0.85094,1.53058 1.59983,4.17699 1.84375,6.4375 0.29542,2.73743 2.9546,5.34631 5.65625,5.5625 1.27485,0.10197 1.56509,0.42028 1.46875,1.625 -0.19824,2.47666 0.55093,3.44371 3.625,4.53125 2.42876,0.85927 3.29455,1.65851 5.15625,4.84375 2.77588,4.74955 5.53216,6.05695 11.34375,5.4375 2.17243,-0.23156 3.99952,-0.70321 6,-1.6875 1.91624,1.41338 4.73392,4.38459 5.15625,9.875 0.64686,8.40924 10.54373,9.64233 9.25,18.375 -1.29373,8.73268 -15.34993,1.58602 -11.46875,6.4375 3.88119,4.85148 -30.55311,-12.24205 -29.90625,-4.15625 0.64687,8.08581 -1.62511,6.161 -8.09375,9.71875 -6.46866,3.55776 -2.27826,0.28744 -10.6875,-3.59375 -8.40923,-3.88119 -4.52352,-4.81724 -9.375,-8.375 -4.85149,-3.55775 -5.158,-0.66563 -17.125,-1.3125 -11.96699,-0.64686 -13.44721,-1.56336 -17.84375,2.15625 -0.34824,0.29463 -0.62795,0.63627 -0.8125,1.03125 -0.40231,0.0474 -0.78719,0.0966 -1.1875,0.15625 -12.80146,1.90673 -22.45058,9.33193 -27.59375,19.75 -5.14316,10.41806 -5.82207,23.84339 -0.875,37.78125 1.09941,3.09749 2.46621,6.09898 4,8.96875 -1.87559,5.21162 -2.38597,10.29792 -1.28125,14.875 -0.0651,0.58077 0.0384,1.13857 0.375,1.71875 0.10051,0.17328 0.18059,0.32798 0.28125,0.5 0.33871,0.90392 0.73876,1.80452 1.21875,2.65625 0.61549,1.09216 1.34888,2.09336 2.15625,3.03125 0.009,0.0109 0.0219,0.0203 0.0312,0.0312 4.86218,8.26892 6.47936,14.37896 -8.40625,9.5625 -10.81393,-3.49901 -16.22185,-4.24165 -19.06513,-2.53574 -2.84328,1.70591 -4.19555,4.02832 -13.80228,11.74376 -4.08007,3.27683 -1.14626,6.96076 12.65707,4.79623 18.06304,-2.8325 23.04609,24.27179 52.04841,17.4246 12.11082,5.06857 15.12945,5.88934 25.4669,6.00428 2.34508,0.0525 4.501,-1.35712 7.80289,0.73024 2.83948,1.79504 15.94137,-3.06955 25.71396,-8.57687 7.92679,-4.46712 16.05406,-7.76103 16.49925,-11.68241 0.35422,-3.12011 4.26519,-4.64879 6.24201,-8.08499 5.44301,-9.46129 10.25937,-23.69872 6.77773,-33.46136 -1.28234,-3.59573 -2.03195,-6.31667 -4.09772,-11.08668 -3.4118,-8.32147 -7.15748,-12.50461 -6.14934,-11.52111 5.59953,6.30706 1.30177,1.62355 14.5625,9.0625 13.20587,7.40818 8.12029,13.19271 24.5625,18.78125 3.4278,-0.14403 11.00423,2.94478 15.71875,11.0625 3.64962,6.28411 5.09003,16.40363 4.6875,25.125 -0.9703,21.02311 -5.20163,21.0362 -9.40625,37.53125 -4.20462,16.49505 -5.16873,17.46906 -3.875,36.875 1.29372,19.40594 0.98123,19.72515 -0.3125,28.78125 0,0 3.21555,20.05332 -1.3125,32.34375 -4.52805,12.29043 -0.96256,24.57673 -4.84375,35.25 -3.88119,10.67326 -1.3092,14.23763 9.6875,22 10.9967,7.76238 7.29336,4.88833 19.09375,5.1875 1.60062,0.0406 0.32189,2.9048 0.96875,10.34375 0,0 0.6548,28.75794 8.09375,36.84375 7.43894,8.08584 13.90955,3.9187 24.90625,2.625 10.9967,-1.29379 13.91718,-7.14212 13.59375,-2.9375 -0.32344,4.20462 4.30188,6.22082 2.25,38.5 -0.23333,3.67111 0.33426,13.62867 -6.78125,18.15625 -7.88718,2.37834 -16.89685,8.87498 -27.1875,9.34375 -2.44344,0.11183 -3.88199,0.1811 -5.6875,0.1875 -1.97698,0.006 -8.75,-0.15625 -8.75,-0.15625 0,0 -1.27114,1.65844 -2.09375,3.75 -0.54727,1.39145 -0.79077,2.84302 -0.0312,4.625 0.64953,9.66007 26.625,8.8125 26.625,8.8125 0,0 0.65058,0.6297 -2.59375,1.34375 -3.51361,0.7733 -10.93585,1.74759 -10.6875,4.40625 0.33288,3.56459 0.7536,3.14438 4.25,4.09375 2.9613,0.80407 0.57057,3.80653 3.5,5.59375 2.92944,1.78652 5.35087,0.22248 3.84375,1.28125 -3.12345,2.19399 1.39197,2.68669 10.65625,3.75 9.26428,1.06331 12.03269,0.78803 25.3125,-7.6875 8.93917,-3.25289 20.62477,0.81509 30,-3.59375 10.42173,-5.18291 3.94224,-11.59572 1.9375,-23.09375 -0.38376,-2.20154 2.8485,-4.97807 3.71875,-6.6875 1.12451,-2.2089 -0.24311,-4.45133 -1.09375,-9.0625 -1.60471,-8.70009 -3.50915,-18.36862 -2.65625,-24.21875 3.23619,-22.19992 8.40083,-24.65286 6.34375,-45.84375 1.29373,-11.967 15.42543,1.97339 42.59375,-0.9375 27.16832,-2.91089 14.20813,-5.18606 33.9375,-12.625 19.72938,-7.43894 13.27516,-6.80797 23.625,-16.1875 0,0 5.82044,-4.1907 13.90625,-8.71875 8.08581,-4.52805 3.55466,-5.497 1.9375,-13.90625 -1.61716,-8.40924 -6.14212,-6.15944 -1.9375,-10.6875 4.20462,-4.52805 7.11118,-2.26888 22.312497,-10.03125 15.20133,-7.76238 5.17812,-7.42358 4.53125,-16.15625 -0.64686,-8.73268 -4.85314,-25.54559 -5.5,-42.6875 -0.59623,-15.79999 -12.956497,-29.38909 -15.656247,-32.6875 l 1.75,0.84375 c 0,0 -10.00784,-11.497 -11.625,-19.90625 -1.61721,-8.40914 -14.9095,-37.85159 -19.43755,-45.9374 -4.52806,-8.08581 -11.63438,-25.53908 -12.28125,-27.15625 0,0 -0.002,-0.33138 -5.5,-8.09375 -5.49835,-7.76238 -11.31415,-20.37974 -16.8125,-23.9375 -5.49835,-3.55775 -10.02352,-12.61727 -14.875,-17.46875 -4.85149,-4.85149 -9.3813,-7.7469 -11.96875,-9.6875 -2.58746,-1.94059 -6.48133,-5.84066 -11.65625,-7.78125 -16.68665,-3.56428 -10.42918,-0.64937 -18.09375,-2.59375 0,0 -0.64387,-0.30951 -8.40625,-8.71875 -7.76238,-8.40924 6.125,1.28125 6.125,1.28125 5.70515,2.4677 9.602,6.67646 16.1875,5.84375 15.32835,-1.9382 11.83042,-11.92958 14.8125,-18.6875 0,0 -9.18354,20.82034 -22.25,6.71875 -1.61716,-1.61717 -3.25,-8.09375 -3.25,-8.09375 0,0 4.20946,2.25939 10.03125,2.90625 12.04011,-0.0184 9.56218,-12.60588 2.28125,-18.4375 -0.77988,-0.75274 -1.1414,-1.08244 -1.21875,-1.125 0.14637,0.40886 7.00802,8.77497 0.125,12.875 -4.42419,2.63538 -5.72348,-2.3783 -9.28125,-13.375 -3.55775,-10.9967 -1.91728,-10.98772 -8.0625,-25.21875 -6.14521,-14.23092 -3.57663,-13.25794 -7.78125,-21.34375 -4.20462,-8.08581 -5.47979,-6.15006 -11.625,-10.03125 0,0 -2.26413,-3.21101 -6.46875,-8.0625 -4.20462,-4.85149 -6.13603,-4.52661 -12.28125,-7.4375 -6.14521,-2.91089 -3.25938,-3.9048 -3.90625,-11.34375 -0.64686,-7.43894 0.005,-13.89697 -2.90625,-19.71875 -2.91089,-5.82178 -5.5032,-15.52362 -10.03125,-26.84375 -4.52806,-11.32013 -11.3127,-20.39397 -24.25,-34.625 -9.81178,-10.79295 -11.83717,-11.52199 -19.28125,-15.34375 -5.80846,-5.19635 -11.46028,-8.38622 -16.53125,-8.625 -1.66841,-0.58787 -2.92974,-0.79523 -4.0625,-0.71875 -2.0793,0.14038 -3.74546,1.14082 -6.59375,2.0625 0.0591,-0.24244 0.12256,-0.46474 0.1875,-0.71875 1.08093,-4.22782 0.32013,-8.65101 -2,-11.65625 -0.55903,-0.72407 -0.88053,-1.10443 -1.21875,-1.0625 z m -111.84375,228.84375 c 0.93856,1.90327 2.06558,3.71572 3,5.15625 3.81706,5.8845 11.08204,9.68809 18.65625,13.09375 -6.00195,1.69094 -12.1933,4.24302 -18.25,7.65625 -12.16944,6.85806 -21.59181,15.91306 -27.09375,25.15625 -0.17077,-0.4459 -0.34181,-0.89808 -0.5,-1.34375 -4.31041,-12.14415 -3.69854,-23.74755 0.75,-32.75 4.39956,-8.90332 12.53082,-15.23229 23.4375,-16.96875 z"
       style="fill:#000000;stroke:none;stroke-width:0.63977826px;stroke-linecap:butt;stroke-linejoin:miter;stroke-opacity:1"
       inkscape:connector-curvature="0"
       sodipodi:nodetypes="csccsccsccscscssccccccccccccscscsssssssscccssccccsccszssccsssssccscsssscsssccssssccccsccscsccscccscccsscssssssccsscssssccscsccccccsssscssscssccscscccscscssc" />
  </g>
</svg>
